# xmcd
#
# Track frame offsets: 
#        150
#        23243
#        57385
#        83146
#        103943
#        118054
#        140381
#        166751
#
# Disc length: 2478 seconds
#
# Revision: 0
# Processed by: cddbd v1.5.2PL0 Copyright (c) Steve Scherf et al.
# Submitted via: ExactAudioCopy v0.99pb4
#
DISCID=6609ac08
DTITLE=Red Hot - Hotter Than Georgia Asphalt
DYEAR=2008
DGENRE=Blues
TTITLE0=Confessions From The Apprentice
TTITLE1=Girls Ain't Nothing But Trouble
TTITLE2=Our World
TTITLE3=Down And Blue
TTITLE4=Letter To My Girlfriend
TTITLE5=Beyond The Wall
TTITLE6=Why Me
TTITLE7=Hold On
EXTD=
EXTT0=
EXTT1=
EXTT2=
EXTT3=
EXTT4=
EXTT5=
EXTT6=
EXTT7=
PLAYORDER=
